<svg height="512" viewBox="0 0 512 512" width="512" xmlns="http://www.w3.org/2000/svg"><path d="m480 296-62.165 6.907a8 8 0 0 0 -6.706 10.481l4.871 14.612h-254.3a251.67 251.67 0 0 0 -66.215 8.867l-9.177 2.5a62.845 62.845 0 0 0 -46.308 60.633h416v-24l-16-24 16-24z" fill="#3e8cc7"/><path d="m432 352 16-24h-270.3a251.67 251.67 0 0 0 -66.215 8.867l-9.177 2.5a62.845 62.845 0 0 0 -46.308 60.633h392v-24z" fill="#4298d1"/><path d="m432 352 16-24h-270.3a251.67 251.67 0 0 0 -66.215 8.867l-9.177 2.5a62.845 62.845 0 0 0 -46.308 60.633h360l32-24z" fill="#4298d1"/><g fill="#83bd93"><path d="m248 240h16v32h-16z"/><path d="m136 272h-16v-48a8 8 0 0 1 8-8h80v16h-72z"/><path d="m200 152h-64v-25.474a24 24 0 1 0 -16 0v33.474a8 8 0 0 0 8 8h72a8 8 0 0 0 0-16zm-72-56a8 8 0 1 1 -8 8 8.005 8.005 0 0 1 8-8z"/><path d="m392 272h-16v-40h-72v-16h80a8 8 0 0 1 8 8z"/><path d="m408 104a24 24 0 1 0 -32 22.525v25.475h-64a8 8 0 0 0 0 16h72a8 8 0 0 0 8-8v-33.474a23.96 23.96 0 0 0 16-22.526zm-24 8a8 8 0 1 1 8-8 8.005 8.005 0 0 1 -8 8z"/><path d="m200 184h-81.474a24 24 0 1 0 0 16h81.474a8 8 0 0 0 0-16zm-104 16a8 8 0 1 1 8-8 8.005 8.005 0 0 1 -8 8z"/><path d="m416 168a23.96 23.96 0 0 0 -22.526 16h-81.474a8 8 0 0 0 0 16h81.475a23.958 23.958 0 1 0 22.525-32zm0 32a8 8 0 1 1 8-8 8.005 8.005 0 0 1 -8 8z"/><path d="m248 104h16v40h-16z"/><path d="m248 72h16v16h-16z"/><path d="m120 288h16v16h-16z"/><path d="m376 288h16v16h-16z"/></g><path d="m287.625 361.758-159.625 38.242h3.655c4.619-.278 12.023-.671 16.583 0h46.673l96.925-22.82a51.3 51.3 0 0 0 36.164-49.18h-16a35.251 35.251 0 0 1 -24.375 33.758z" fill="#3e8cc7"/><path d="m241.675 296h20.571a207.991 207.991 0 0 1 65.776 10.674l63.978 21.326h-224l13.7-10.963a96 96 0 0 1 59.975-21.037z" fill="#eaeae8"/><path d="m327.156 324.422a65.769 65.769 0 0 0 -19.6-23.292 207.917 207.917 0 0 0 -45.31-5.13h-20.571a95.953 95.953 0 0 0 -38.27 8h64.822a49.5 49.5 0 0 1 42.505 24h17.188a7.82 7.82 0 0 0 -.764-3.578z" fill="#dbdbdb"/><path d="m200 136h112v112h-112z" fill="#fdb62f"/><path d="m232 168h48v48h-48z" fill="#dc9315"/><circle cx="128" cy="380" fill="#eaeae8" r="32"/><path d="m128 420a40 40 0 1 1 40-40 40.047 40.047 0 0 1 -40 40zm0-64a24 24 0 1 0 24 24 24.027 24.027 0 0 0 -24-24z" fill="#787d82"/><circle cx="384" cy="380" fill="#eaeae8" r="32"/><path d="m384 420a40 40 0 1 1 40-40 40.047 40.047 0 0 1 -40 40zm0-64a24 24 0 1 0 24 24 24.027 24.027 0 0 0 -24-24z" fill="#787d82"/></svg>