<svg height="512" viewBox="0 0 512 512" width="512" xmlns="http://www.w3.org/2000/svg"><path d="m406.091 456a87.961 87.961 0 0 0 81.909-56h-62.2l-27.709-16v-32l27.709-16h62.2a87.97 87.97 0 0 0 -155.61-16h-60.39v96h60.39a87.87 87.87 0 0 0 73.701 40z" fill="#d9d9d9"/><path d="m319.614 352h-39.614v32h39.614a84.806 84.806 0 0 1 0-32z" fill="#cdcdcd"/><path d="m390.086 429.68a8 8 0 0 1 -2.281-.336 64.017 64.017 0 0 1 0-122.688 8 8 0 1 1 4.562 15.328 48.028 48.028 0 0 0 0 92.032 8 8 0 0 1 -2.281 15.664z" fill="#cdcdcd"/><path d="m453.512 384v-32l-27.712-16-27.713 16v32l27.713 16z" fill="#b9b9b9"/><path d="m398.087 352v9.239l47.425 27.379 8-4.618v-9.241l-47.424-27.378z" fill="#cdcdcd"/><path d="m280 424h-56v-137.687l8-6.313a48 48 0 0 1 48 48z" fill="#eaeae8"/><path d="m80 416v-72h-56v104a16 16 0 0 0 16 16h216z" fill="#fec9a3"/><path d="m80 344h-56v-16a48 48 0 0 1 48-48l8-1z" fill="#eaeae8"/><path d="m96 176h-16a24 24 0 0 1 -24-24 24 24 0 0 1 24-24h16z" fill="#f7bb8f"/><path d="m208 176h16a24 24 0 0 0 24-24 24 24 0 0 0 -24-24h-16z" fill="#f7bb8f"/><path d="m232 416v-136l-48-16h-64l-48 16v136z" fill="#4298d1"/><path d="m176 376h16v16h-16z" fill="#3981b7"/><path d="m72 416v-8l-16 8 16 48h176a15.816 15.816 0 0 0 4.836-.825z" fill="#f7bb8f"/><path d="m120 224v40l32 48 32-48v-40z" fill="#fec9a3"/><path d="m120 239.368a63.63 63.63 0 0 0 64 0v-15.368h-64z" fill="#f7bb8f"/><path d="m152 240a64 64 0 0 1 -64-64v-72h128v72a64 64 0 0 1 -64 64z" fill="#fec9a3"/><g fill="#905638"><circle cx="120" cy="160" r="8"/><circle cx="184" cy="160" r="8"/><path d="m160 184h-16a7.992 7.992 0 0 1 -7.586-10.531l8-24a8 8 0 1 1 15.172 5.062l-4.486 13.469h4.9a8 8 0 0 1 0 16z"/><path d="m152 215.984a30.528 30.528 0 0 1 -21.656-8.953 8 8 0 0 1 11.312-11.312 14.646 14.646 0 0 0 20.688 0 8 8 0 0 1 11.312 11.312 30.528 30.528 0 0 1 -21.656 8.953z"/></g><path d="m152 424a8 8 0 0 1 -8-8v-96a8 8 0 0 1 16 0v96a8 8 0 0 1 -8 8z" fill="#3981b7"/><path d="m128 336 24-24-32-56-24 16z" fill="#3981b7"/><path d="m176 336-24-24 32-56 24 16z" fill="#3981b7"/><path d="m88 104h128v24h-128z" fill="#f7bb8f"/><path d="m88 104 6.111 12.223a64.723 64.723 0 0 0 57.889 35.777 64.723 64.723 0 0 0 57.889-35.777l6.111-12.223-8-8h-112z" fill="#69b9e7"/><path d="m232 344v72h-96l-32-16-32 16 16 48h176a16 16 0 0 0 16-16v-104z" fill="#fec9a3"/><path d="m216 104h-128v-32a32 32 0 0 1 32-32h64a32 32 0 0 1 32 32z" fill="#3981b7"/></svg>