<svg id="Capa_1" enable-background="new 0 0 512 512" height="512" viewBox="0 0 512 512" width="512" xmlns="http://www.w3.org/2000/svg"><path d="m135.681 334.958 13.854-8.873c31.734-20.325 68.629-31.128 106.314-31.127h13.074c33.497-.001 66.442 8.534 95.725 24.8l27.352 15.2-4 9.6-256.451-1.478z" fill="#bef5fa"/><path d="m488 152c-.016-36.23-22.246-68.745-56-81.909v65.909l-16 24h-32l-16-24v-65.909c-45.245 17.702-67.572 68.731-49.87 113.976 6.678 17.067 18.519 31.623 33.87 41.633v262.3h96v-262.3c24.952-16.21 40.005-43.945 40-73.7z" fill="#b9b9b9"/><path d="m480 152c-.015-33.033-18.56-63.266-48-78.249v62.249l-16 24h-40l-16-24v-62.249c-43.24 22.108-60.371 75.083-38.263 118.323 6.982 13.657 17.415 25.249 30.263 33.627v262.299h88v-262.3c24.952-16.21 40.005-43.945 40-73.7z" fill="#d9d9d9"/><g fill="#b9b9b9"><path d="m384 238.477v249.523h32v-249.523c-10.57 2.031-21.43 2.031-32 0z"/><path d="m400 216c-28.269-.117-53.155-18.663-61.348-45.719-1.26-4.235 1.152-8.689 5.387-9.949s8.689 1.152 9.949 5.387c7.587 25.412 34.338 39.862 59.75 32.274 15.51-4.631 27.644-16.764 32.274-32.274 1.26-4.235 5.714-6.647 9.949-5.387s6.647 5.714 5.387 9.949c-8.193 27.056-33.079 45.602-61.348 45.719z"/><path d="m416 40.574h-32l-16 27.713 16 27.713h32l16-27.713z"/></g><path d="m406.761 40.574-27.381 47.425 4.62 8.001h9.239l27.381-47.424-4.62-8.002z" fill="#d9d9d9"/><path d="m392 334.958-27.353-15.2c-6.507-3.59-13.212-6.808-20.083-9.639l-24.564 24.835h-231.991c-15.479 0-30.434 5.611-42.093 15.793l-.018.015c-13.915 12.152-21.9 29.725-21.9 48.2h392.002l16-16.007v-32z" fill="#69b9e7"/><circle cx="105.699" cy="383.52" fill="#f8f8f8" r="32"/><circle cx="361.699" cy="383.52" fill="#f8f8f8" r="32"/><path d="m105.7 423.52c-22.091 0-40-17.909-40-40s17.909-40 40-40 40 17.909 40 40c-.026 22.08-17.92 39.974-40 40zm0-64c-13.255 0-24 10.745-24 24s10.745 24 24 24 24-10.745 24-24c-.014-13.249-10.751-23.986-24-24z" fill="#62666a"/><path d="m361.7 423.52c-22.091 0-40-17.909-40-40s17.909-40 40-40 40 17.909 40 40c-.026 22.08-17.92 39.974-40 40zm0-64c-13.255 0-24 10.745-24 24s10.745 24 24 24 24-10.745 24-24c-.014-13.249-10.751-23.986-24-24z" fill="#62666a"/><path d="m256 342.957c4.418 0 8-3.582 8-8h-16c0 4.418 3.582 8 8 8z" fill="#3474a6"/><path d="m160 334.957h16v64h-16z" fill="#5fa6d0"/><path d="m243.305 398.965 18.351-18.352c1.5-1.5 2.344-3.534 2.344-5.656v-40h-16v36.688l-27.32 27.32z" fill="#5fa6d0"/><path d="m416 358.957h16v16h-16z" fill="#fdb62f"/><path d="m28.766 374.957h27.234v-16h-17.845c-3.891 4.848-7.054 10.238-9.389 16z" fill="#fdb62f"/><path d="m344.564 310.122-.007-.003.007.004z" fill="#bef5fa"/><path d="m264 294.958h-8.151c-2.625 0-5.233.176-7.849.28v39.719h16z" fill="#b1e4e9"/></svg>