<svg height="512" viewBox="0 0 512 512" width="512" xmlns="http://www.w3.org/2000/svg"><rect fill="#35e0d1" height="352" rx="16" width="464" x="24" y="32"/><path d="m143.992 236a7.977 7.977 0 0 1 -4.793-1.6l-48-36a7.991 7.991 0 0 1 -3.199-6.4v-40a8 8 0 0 1 16 0v36l44.8 33.6a8 8 0 0 1 -4.809 14.4z" fill="#2bc9c4"/><path d="m118.16 296h-46.16v-32a46.422 46.422 0 0 1 2.8-16 47.848 47.848 0 0 1 45.2-32h264a31.991 31.991 0 0 1 32 32v48z" fill="#f5b02e"/><path d="m279.055 296h17.89l14.211-28.422a8 8 0 0 0 .844-3.578v-48h-16v46.109z" fill="#ec9e15"/><path d="m184 216h16v80h-16z" fill="#ec9e15"/><g fill="#2bc9c4"><rect height="80" rx="16" width="80" x="376" y="64"/><rect height="80" rx="16" width="80" x="56" y="80"/><rect height="64" rx="16" width="80" x="192" y="64"/></g><path d="m368 480h-224v-16a16 16 0 0 1 16-16h192a16 16 0 0 1 16 16z" fill="#cdcdcd"/><path d="m24 336h464a0 0 0 0 1 0 0v32a16 16 0 0 1 -16 16h-432a16 16 0 0 1 -16-16v-32a0 0 0 0 1 0 0z" fill="#cdcdcd"/><path d="m248 240h32v16h-32z" fill="#ec9e15"/><path d="m416 248a31.727 31.727 0 0 0 -1.131-8h-22.869v16h24z" fill="#ff9201"/><path d="m72.72 256h31.28v-16h-25.526a47.6 47.6 0 0 0 -5.754 16z" fill="#ff9201"/><path d="m432 184h32v16h-32z" fill="#2bc9c4"/><path d="m432 216h32v16h-32z" fill="#2bc9c4"/><path d="m326.311 444.622a135.547 135.547 0 0 1 -14.311-60.622h-32v8a24 24 0 0 1 -48 0v-8h-32a135.547 135.547 0 0 1 -14.311 60.622l-1.689 3.378h144z" fill="#a8a8a8"/><path d="m353.711 207.148a8 8 0 0 1 -3.586-15.156l57.875-28.937v-27.055a8 8 0 0 1 16 0v32a8 8 0 0 1 -4.422 7.156l-62.3 31.149a8.022 8.022 0 0 1 -3.567.843z" fill="#2bc9c4"/><path d="m279.992 188.055a7.941 7.941 0 0 1 -4.027-1.094l-48-28.055a8 8 0 0 1 -3.965-6.906v-32a8 8 0 0 1 16 0v27.406l44.035 25.742a8 8 0 0 1 -4.043 14.907z" fill="#2bc9c4"/><path d="m384 216h-208l3.5-5.251a96 96 0 0 1 79.878-42.749h39.658a96 96 0 0 1 73.749 34.542z" fill="#f8f8f8"/><path d="m299.036 168h-3.036v48h16v-47.019a95.662 95.662 0 0 0 -12.964-.981z" fill="#eaeae8"/><circle cx="136" cy="280" fill="#dbdbdb" r="24"/><circle cx="360" cy="280" fill="#dbdbdb" r="24"/><path d="m136 312a32 32 0 1 1 32-32 32.034 32.034 0 0 1 -32 32zm0-48a16 16 0 1 0 16 16 16.019 16.019 0 0 0 -16-16z" fill="#6f7478"/><path d="m360 312a32 32 0 1 1 32-32 32.034 32.034 0 0 1 -32 32zm0-48a16 16 0 1 0 16 16 16.019 16.019 0 0 0 -16-16z" fill="#6f7478"/><path d="m278.53 400h34.426a135.673 135.673 0 0 1 -.956-16h-32v8a23.769 23.769 0 0 1 -1.47 8z" fill="#878787"/><path d="m233.47 400a23.769 23.769 0 0 1 -1.47-8v-8h-32a135.673 135.673 0 0 1 -.956 16z" fill="#878787"/></svg>