<svg height="512" viewBox="0 0 512 512" width="512" xmlns="http://www.w3.org/2000/svg"><path d="m400 400a8 8 0 0 1 -8-8v-240a8 8 0 0 1 16 0v240a8 8 0 0 1 -8 8z" fill="#d9d9d9"/><path d="m120 240h-16v-27.156a8.044 8.044 0 0 0 -1.344-4.442l-13.312-19.964 13.312-8.876 13.313 19.969a23.943 23.943 0 0 1 4.031 13.313z" fill="#b9b9b9"/><path d="m160 416h-16a40.047 40.047 0 0 1 -40-40v-88a8 8 0 0 1 16 0v88a24.027 24.027 0 0 0 24 24h16a8 8 0 0 1 0 16z" fill="#bb4033"/><path d="m128 304-32-8v-48a16 16 0 0 1 16-16 16 16 0 0 1 16 16z" fill="#de4c3b"/><path d="m352 464h-192v-280a16 16 0 0 1 16-16h160a16 16 0 0 1 16 16z" fill="#eaeae8"/><path d="m400 144a8 8 0 0 0 -8 8v15.447a58.143 58.143 0 0 0 16 0v-15.447a8 8 0 0 0 -8-8z" fill="#cdcdcd"/><path d="m192 200h128v96h-128z" fill="#88ced9"/><path d="m192 209.781h120v86.219h-120z" fill="#acdee3"/><path d="m160 328h192v128h-192z" fill="#f85542"/><circle cx="112" cy="248" fill="#bb4033" r="16"/><path d="m416 464h-32v-64a8 8 0 0 1 8-8h16a8 8 0 0 1 8 8z" fill="#69b9e7"/><path d="m384 424h32v32h-32z" fill="#4298d1"/><g fill="#bef5fa"><path d="m248 240h16v16h-16z"/><path d="m216 240h16v16h-16z"/><path d="m280 240h16v16h-16z"/></g><path d="m160 328h192v32h-192z" fill="#f8bb59"/><path d="m328 456h-16v-56h-16v-16h24a8 8 0 0 1 8 8z" fill="#de4c3b"/><path d="m160 384h120v16h-120z" fill="#de4c3b"/><circle cx="400" cy="88" fill="#69b9e7" r="72"/><circle cx="400" cy="88" fill="#fcd795" r="56"/><path d="m400 120a24 24 0 0 1 -24-24 24 24 0 0 1 4.8-14.4l19.2-25.6 19.2 25.6a24 24 0 0 1 4.8 14.4 24 24 0 0 1 -24 24z" fill="#6f7478"/><path d="m396 61.333-15.2 20.267a23.943 23.943 0 0 0 15.2 38 23.943 23.943 0 0 0 15.2-38z" fill="#878787"/><path d="m160 448h192v8.109h-192z" fill="#de4c3b"/><path d="m432 488h-304v-24a8 8 0 0 1 8-8h288a8 8 0 0 1 8 8z" fill="#a8a8a8"/><path d="m128 472h304v16h-304z" fill="#878787"/></svg>