<svg height="512" viewBox="0 0 512 512" width="512" xmlns="http://www.w3.org/2000/svg"><path d="m191.992 125.965a7.97 7.97 0 0 1 -3.57-.844l-110.309-55.156h-22.113a8 8 0 0 1 0-16h24a8 8 0 0 1 3.578.844l112 56a8 8 0 0 1 -3.586 15.156z" fill="#ec9e15"/><path d="m456 173.964-32 16h-368v-18.388a61.612 61.612 0 0 1 23.123-48.111 61.612 61.612 0 0 1 38.489-13.5h58.388l34.65-28.875a47.994 47.994 0 0 1 30.728-11.125h134.622l80 48z" fill="#fdb62f"/><path d="m305.614 189.963 13.042-19.563a8.005 8.005 0 0 0 1.344-4.435v-56a8 8 0 0 0 -16 0v53.578l-17.616 26.42z" fill="#ec9e15"/><path d="m280 157.965h-24a8 8 0 0 1 0-16h24a8 8 0 0 1 0 16z" fill="#ec9e15"/><path d="m426.348 384a24 24 0 0 1 24-24h35.3a63.93 63.93 0 0 0 -113.246-10.348h-229.866a64.011 64.011 0 0 0 -87.757-22.828l32.5 32.5a16 16 0 1 1 -22.628 22.627l-32.495-32.5a63.975 63.975 0 1 0 110.672 64.2h226.833a63.957 63.957 0 0 0 115.991-5.651h-35.3a24 24 0 0 1 -24.004-24z" fill="#d9d9d9"/><path d="m136 373.652h240v16h-240z" fill="#b9b9b9"/><circle cx="120" cy="173.964" fill="#eaeae8" r="32"/><circle cx="392" cy="173.964" fill="#eaeae8" r="32"/><path d="m120 213.965a40 40 0 1 1 40-40 40.047 40.047 0 0 1 -40 40zm0-64a24 24 0 1 0 24 24 24.026 24.026 0 0 0 -24-24z" fill="#62666a"/><path d="m392 213.965a40 40 0 1 1 40-40 40.047 40.047 0 0 1 -40 40zm0-64a24 24 0 1 0 24 24 24.026 24.026 0 0 0 -24-24z" fill="#62666a"/><path d="m176 109.964h160l32-40h-126.622a47.994 47.994 0 0 0 -30.728 11.125z" fill="#b1e4e9"/><path d="m241.378 69.963a48 48 0 0 0 -30.729 11.126l-34.649 28.874h144l32-40z" fill="#bef5fa"/><g fill="#97d9a9"><path d="m359.117 285.059a8 8 0 0 0 -9.594 5.992 95.534 95.534 0 0 1 -93.476 74.3h-.067c-43.291 0-81.292-29.742-92.544-70.7l8.13 5.412a8 8 0 0 0 8.868-13.32l-24.012-15.984a8 8 0 0 0 -11.094 2.226l-15.984 24.015a8 8 0 0 0 13.32 8.867l5.135-7.713c12.884 48.163 57.424 83.2 108.181 83.2h.075a111.464 111.464 0 0 0 109.054-86.7 7.994 7.994 0 0 0 -5.992-9.595z"/><path d="m382.27 230.414a8 8 0 0 0 -11.094 2.227l-6.489 9.748a111.351 111.351 0 0 0 -108.7-85.037h-.078a111.538 111.538 0 0 0 -108.945 86.23 8 8 0 1 0 15.57 3.668 95.6 95.6 0 0 1 93.383-73.9h.07a95.4 95.4 0 0 1 92.055 68.929l-5.766-3.84a8 8 0 0 0 -8.867 13.321l24.008 15.984a8 8 0 0 0 11.094-2.226l15.989-24.01a8 8 0 0 0 -2.23-11.094z"/></g></svg>