<?xml version="1.0" encoding="iso-8859-1"?>
<!-- Generator: Adobe Illustrator 19.0.0, SVG Export Plug-In . SVG Version: 6.00 Build 0)  -->
<svg version="1.1" id="Capa_1" xmlns="http://www.w3.org/2000/svg" xmlns:xlink="http://www.w3.org/1999/xlink" x="0px" y="0px"
	 viewBox="0 0 512 512" style="enable-background:new 0 0 512 512;" xml:space="preserve">
<path style="fill:#D1D5CD;" d="M393.805,5.362v67.854h-30.937V5.362c0-2.96,2.403-5.362,5.362-5.362h20.212
	C391.403,0,393.805,2.403,393.805,5.362z"/>
<path style="fill:#B5B7B2;" d="M383.183,0H368.23c-2.96,0-5.362,2.403-5.362,5.362v67.854h14.953V5.362
	C377.821,2.403,380.224,0,383.183,0z"/>
<path style="fill:#FFC35A;" d="M404.623,67.029h-10.817h-30.937h-10.817c-4.847,0-8.776,3.929-8.776,8.776v129.408h70.123V75.805
	C413.399,70.958,409.469,67.029,404.623,67.029z"/>
<path style="fill:#F7B141;" d="M380.176,67.029h-17.307h-10.817c-4.847,0-8.776,3.929-8.776,8.776v129.408H371.4V75.805
	C371.4,70.958,375.329,67.029,380.176,67.029z"/>
<path style="fill:#C0C4BC;" d="M278.525,323.411h60.986c-1.578,4.651-2.423,9.642-2.423,14.829c0,5.105,0.825,10.013,2.351,14.612
	h-60.914V323.411z"/>
<path style="fill:#B5B7B2;" d="M337.09,338.131h-58.565v14.721h60.914c-1.526-4.599-2.351-9.508-2.351-14.612
	C337.088,338.204,337.089,338.167,337.09,338.131z"/>
<g>
	<path style="fill:#FC5151;" d="M440.685,98.832c0.495,7.074-4.475,13.354-11.117,14.025l-16.169,1.64l-70.123,7.084l-15.396,1.557
		c-0.938,0.103-1.867,0.072-2.764-0.052c-5.404-0.784-9.724-5.476-10.158-11.55c-0.495-7.074,4.475-13.354,11.117-14.025
		l17.201-1.743l70.123-7.084l14.365-1.454C434.394,86.55,440.179,91.748,440.685,98.832z"/>
	<path style="fill:#FC5151;" d="M440.685,151.424c0.495,7.074-4.475,13.354-11.117,14.025l-16.169,1.64l-70.123,7.084l-15.396,1.557
		c-0.938,0.103-1.867,0.072-2.764-0.052c-5.404-0.784-9.724-5.476-10.158-11.55c-0.495-7.074,4.475-13.354,11.117-14.025
		l17.201-1.743l70.123-7.084l14.365-1.454C434.394,139.142,440.179,144.34,440.685,151.424z"/>
</g>
<g>
	<path style="fill:#F24141;" d="M430.405,103.187l-70.123,7.084l-15.396,1.557c-0.938,0.103-1.867,0.072-2.764-0.052
		c-5.404-0.784-9.724-5.476-10.158-11.55c-0.079-1.138-0.004-2.253,0.184-3.331l-6.075,0.616c-6.641,0.67-11.612,6.95-11.117,14.025
		c0.433,6.074,4.754,10.766,10.158,11.55c0.897,0.124,1.825,0.155,2.764,0.052l15.396-1.557l70.123-7.084l16.169-1.64
		c5.572-0.562,9.953-5.078,10.933-10.694L430.405,103.187z"/>
	<path style="fill:#F24141;" d="M430.405,155.779l-70.123,7.084l-15.396,1.557c-0.938,0.103-1.867,0.072-2.764-0.052
		c-5.404-0.784-9.724-5.476-10.158-11.55c-0.079-1.138-0.004-2.253,0.184-3.331l-6.075,0.616c-6.641,0.67-11.612,6.95-11.117,14.025
		c0.433,6.074,4.754,10.766,10.158,11.55c0.897,0.124,1.825,0.155,2.764,0.052l15.396-1.557l70.123-7.084l16.169-1.64
		c5.572-0.562,9.953-5.078,10.933-10.694L430.405,155.779z"/>
</g>
<path style="fill:#D1D5CD;" d="M334.283,352.336c-1.526-4.599-2.351-9.508-2.351-14.612c0-5.187,0.846-10.178,2.423-14.829
	c3.816-11.333,11.9-20.697,22.326-26.214V250.07h43.311v46.611c14.715,7.786,24.749,23.233,24.749,41.042
	c0,25.626-20.779,46.405-46.405,46.405C357.816,384.129,340.409,370.806,334.283,352.336z M395.868,337.724
	c0-9.683-7.848-17.531-17.531-17.531c-9.683,0-17.531,7.848-17.531,17.531c0,9.683,7.848,17.531,17.531,17.531
	C388.02,355.255,395.868,347.407,395.868,337.724z"/>
<path style="fill:#B5B7B2;" d="M378.997,281.985V250.07H356.68v46.393h7.837C372.515,296.464,378.997,289.982,378.997,281.985z"/>
<path style="fill:#ACAFB7;" d="M413.399,228.931v21.583c0,4.032-3.259,7.291-7.291,7.291h-6.115h-43.311h-6.115
	c-4.032,0-7.291-3.259-7.291-7.291v-21.583h0.959h68.205H413.399z"/>
<path style="fill:#9B9FA8;" d="M365.486,250.514v-21.583h-21.252h-0.959v21.583c0,4.032,3.259,7.291,7.291,7.291h6.115h16.096
	C368.745,257.805,365.486,254.546,365.486,250.514z"/>
<path style="fill:#74767F;" d="M284.713,352.852v14.334c0,2.248-1.825,4.063-4.063,4.063h-43.61v-66.235h43.61
	c2.238,0,4.063,1.815,4.063,4.053v14.344V352.852z"/>
<path style="fill:#555760;" d="M280.65,345.2h-43.61v26.049h43.61c2.238,0,4.063-1.815,4.063-4.063v-14.334v-11.715
	C284.712,343.385,282.886,345.2,280.65,345.2z"/>
<path style="fill:#FFC35A;" d="M252.508,371.249v5.734c0,8.518-6.899,15.427-15.427,15.427h-27.08V283.853h27.08
	c8.528,0,15.427,6.909,15.427,15.427v5.734V371.249z"/>
<path style="fill:#F7B141;" d="M237.081,366.361h-27.08v26.049h27.08c8.528,0,15.427-6.909,15.427-15.427v-5.734v-20.315
	C252.508,359.452,245.609,366.361,237.081,366.361z"/>
<path style="fill:#70727F;" d="M145.797,512h-34.123H94.742c-12.962,0-23.46-10.508-23.46-23.46V185.877
	c0-12.952,10.498-23.46,23.46-23.46h102.111c12.952,0,23.46,10.508,23.46,23.46v97.976V392.41v96.13
	c0,12.952-10.508,23.46-23.46,23.46H179.92H145.797z"/>
<path style="fill:#555760;" d="M127.751,488.54V185.877c0-12.952,10.498-23.46,23.46-23.46h-56.47
	c-12.962,0-23.46,10.508-23.46,23.46V488.54c0,12.952,10.498,23.46,23.46,23.46h16.933h34.123h5.414
	C138.248,512,127.751,501.492,127.751,488.54z"/>
<path style="fill:#4C4E56;" d="M111.674,398.298c-4.272,0-7.734-3.463-7.734-7.734v-25.76c0-4.271,3.462-7.734,7.734-7.734
	c4.272,0,7.734,3.463,7.734,7.734v25.76C119.408,394.835,115.946,398.298,111.674,398.298z"/>
<g>
	<path style="fill:#5A5D6B;" d="M179.919,398.298c-4.272,0-7.734-3.463-7.734-7.734v-25.76c0-4.271,3.462-7.734,7.734-7.734
		c4.272,0,7.734,3.463,7.734,7.734v25.76C187.653,394.835,184.192,398.298,179.919,398.298z"/>
	<path style="fill:#5A5D6B;" d="M145.797,317.801c-4.272,0-7.734-3.463-7.734-7.734v-25.76c0-4.271,3.462-7.734,7.734-7.734
		c4.272,0,7.734,3.463,7.734,7.734v25.76C153.531,314.338,150.069,317.801,145.797,317.801z"/>
</g>
<g>
	<path style="fill:#4C4E56;" d="M103.94,162.417v175.709c0,4.271,3.462,7.734,7.734,7.734c4.272,0,7.734-3.463,7.734-7.734V162.417
		H103.94z"/>
	<path style="fill:#4C4E56;" d="M111.674,415.035c-4.272,0-7.734,3.463-7.734,7.734V512h7.734h7.734v-89.231
		C119.408,418.497,115.946,415.035,111.674,415.035z"/>
</g>
<g>
	<path style="fill:#5A5D6B;" d="M172.185,162.417v175.709c0,4.271,3.462,7.734,7.734,7.734c4.272,0,7.734-3.463,7.734-7.734V162.417
		H172.185z"/>
	<path style="fill:#5A5D6B;" d="M179.919,415.035c-4.272,0-7.734,3.463-7.734,7.734V512h7.734h7.734v-89.231
		C187.653,418.497,184.192,415.035,179.919,415.035z"/>
	<path style="fill:#5A5D6B;" d="M145.797,329.01c-4.272,0-7.734,3.463-7.734,7.734V512h7.734h7.734V336.744
		C153.531,332.473,150.069,329.01,145.797,329.01z"/>
	<path style="fill:#5A5D6B;" d="M138.063,162.417v89.695c0,4.271,3.462,7.734,7.734,7.734c4.272,0,7.734-3.463,7.734-7.734v-89.695
		H138.063z"/>
</g>
<path style="fill:#74767F;" d="M421.648,203.728v22.182c0,5.086-4.123,9.209-9.209,9.209h-68.205c-5.086,0-9.209-4.123-9.209-9.209
	v-22.182c0-1.458,1.182-2.64,2.64-2.64h5.61h70.123h5.61C420.465,201.088,421.648,202.269,421.648,203.728z"/>
<path style="fill:#555760;" d="M362.191,225.909v-22.182c0-1.458,1.182-2.64,2.64-2.64h-21.556h-5.61c-1.458,0-2.64,1.182-2.64,2.64
	v22.182c0,5.086,4.123,9.209,9.209,9.209H371.4C366.314,235.118,362.191,230.995,362.191,225.909z"/>
<g>
</g>
<g>
</g>
<g>
</g>
<g>
</g>
<g>
</g>
<g>
</g>
<g>
</g>
<g>
</g>
<g>
</g>
<g>
</g>
<g>
</g>
<g>
</g>
<g>
</g>
<g>
</g>
<g>
</g>
</svg>
