<svg id="Слой_1" data-name="Слой 1" xmlns="http://www.w3.org/2000/svg" xmlns:xlink="http://www.w3.org/1999/xlink" viewBox="0 0 90.88 90.88"><defs><style>.cls-1{fill:none;}.cls-2{clip-path:url(#clip-path);}.cls-3{fill:#fff;}.cls-4{clip-path:url(#clip-path-2);}.cls-5{fill:url(#Безымянный_градиент);}</style><clipPath id="clip-path" transform="translate(0 0)"><rect class="cls-1" width="90.88" height="90.88"/></clipPath><clipPath id="clip-path-2" transform="translate(0 0)"><path class="cls-1" d="M6.07,45.44A39.37,39.37,0,1,0,45.44,6.07,39.37,39.37,0,0,0,6.07,45.44"/></clipPath><linearGradient id="Безымянный_градиент" y1="90.88" x2="1" y2="90.88" gradientTransform="translate(7147.82 6.07) rotate(90) scale(78.15)" gradientUnits="userSpaceOnUse"><stop offset="0" stop-color="#66a8ea"/><stop offset="1" stop-color="#5d9cd5"/></linearGradient></defs><title>telegram</title><g class="cls-2"><path class="cls-3" d="M45.44,0A45.44,45.44,0,1,1,0,45.44,45.44,45.44,0,0,1,45.44,0" transform="translate(0 0)"/></g><g class="cls-4"><rect class="cls-5" x="6.07" y="6.07" width="78.74" height="78.74"/></g><g class="cls-2"><path class="cls-3" d="M23.89,45l23-9.89c10.93-4.55,13.21-5.34,14.69-5.36a2.59,2.59,0,0,1,1.53.46,1.66,1.66,0,0,1,.56,1.07,6.9,6.9,0,0,1,.07,1.55c-.59,6.22-3.16,21.33-4.46,28.3-.55,3-1.64,3.94-2.69,4-2.29.21-4-1.51-6.24-3l-8.79-5.9c-3.89-2.56-1.37-4,.85-6.27.58-.6,10.65-9.76,10.85-10.59a.81.81,0,0,0-.18-.7.91.91,0,0,0-.82-.08q-.52.12-16.61,11a7.48,7.48,0,0,1-4.27,1.58,28.1,28.1,0,0,1-6.12-1.45C22.75,49,20.79,48.56,21,47.2q.13-1.06,2.93-2.17Z" transform="translate(0 0)"/></g></svg>