<svg id="Слой_1" data-name="Слой 1" xmlns="http://www.w3.org/2000/svg" xmlns:xlink="http://www.w3.org/1999/xlink" viewBox="0 0 98.03 103.36"><defs><style>.cls-1{fill:none;}.cls-2{clip-path:url(#clip-path);}.cls-3{fill:#fff;}.cls-4{fill:#6e60ed;}</style><clipPath id="clip-path" transform="translate(0 0)"><rect class="cls-1" width="98.03" height="103.36"/></clipPath></defs><title>viber</title><g class="cls-2"><path class="cls-3" d="M87,10.08C84.39,7.71,74,.18,50.89.07c0,0-27.26-1.64-40.56,10.55C2.94,18,.34,28.85.06,42.28S-.57,80.86,23.68,87.68h0V98.09s-.16,4.21,2.62,5.07c3.36,1,5.33-2.16,8.53-5.61,1.76-1.9,4.19-4.68,6-6.81a93.47,93.47,0,0,0,30.79-2.27C75,87.39,93.95,85,97,59.81,100.21,33.88,95.49,17.48,87,10.08" transform="translate(0 0)"/><path class="cls-4" d="M81.57,15.32c-2.17-2-11.55-7.86-31.1-7.95,0,0-23.16-1.52-34.4,8.66C9.81,22.21,7.7,31.4,7.47,42.61S6,75.24,26.55,80.94c0,0-.08,15.9-.09,17.3,0,1,.15,1.65.71,1.78a1.78,1.78,0,0,0,1.52-.62c3.28-3.29,13.78-16,13.78-16A86.05,86.05,0,0,0,69,81.18C71.8,80.27,87.17,79,89.77,57.94c2.69-21.66-1-36.44-8.2-42.62" transform="translate(0 0)"/><path class="cls-3" d="M60.41,43a1.31,1.31,0,0,1-1.31-1.24c-.22-4.44-2.31-6.62-6.58-6.84a1.31,1.31,0,1,1,.14-2.61c5.63.29,8.76,3.52,9.05,9.32A1.31,1.31,0,0,1,60.48,43h-.07" transform="translate(0 0)"/><path class="cls-3" d="M67.12,45.25h0a1.31,1.31,0,0,1-1.28-1.33,15.11,15.11,0,0,0-3.9-11.06c-2.72-3-6.45-4.59-11.39-5a1.31,1.31,0,1,1,.19-2.61c5.57.41,10,2.36,13.13,5.79A17.84,17.84,0,0,1,68.43,44a1.31,1.31,0,0,1-1.31,1.28" transform="translate(0 0)"/><path class="cls-3" d="M74,47.93a1.31,1.31,0,0,1-1.31-1.3c-.06-7.89-2.43-14.17-7-18.66A24.22,24.22,0,0,0,48.3,21.12a1.31,1.31,0,0,1,0-2.62h0a26.75,26.75,0,0,1,19.15,7.6c5.13,5,7.76,11.9,7.83,20.51A1.31,1.31,0,0,1,74,47.93Z" transform="translate(0 0)"/><path class="cls-3" d="M52.86,59.2a3.59,3.59,0,0,0,2.83-1.06l1.93-2.43A4.24,4.24,0,0,1,63,55q2.47,1.41,4.79,3.06c1.46,1.07,4.45,3.57,4.46,3.57A3.69,3.69,0,0,1,73,66.42s0,0,0,0a20.15,20.15,0,0,1-4,4.94l0,0a7.9,7.9,0,0,1-4.08,2,2.71,2.71,0,0,1-.6,0,5.46,5.46,0,0,1-1.73-.27l0-.06c-2.06-.58-5.49-2-11.21-5.19a66.77,66.77,0,0,1-9.42-6.22,49.32,49.32,0,0,1-4.24-3.76l-.14-.14-.14-.14-.14-.14-.14-.14a49,49,0,0,1-3.76-4.24,66.77,66.77,0,0,1-6.22-9.42c-3.16-5.72-4.61-9.15-5.19-11.21l-.06,0a5.44,5.44,0,0,1-.27-1.74,2.63,2.63,0,0,1,0-.6,8.07,8.07,0,0,1,2-4.08l0,0a20.1,20.1,0,0,1,4.94-4h0a3.7,3.7,0,0,1,4.83.78s2.5,3,3.57,4.46,2.12,3.15,3.06,4.8a4.24,4.24,0,0,1-.75,5.38l-2.43,1.93a3.56,3.56,0,0,0-1.06,2.83s3.6,13.61,17,17" transform="translate(0 0)"/></g></svg>