<svg id="Слой_1" data-name="Слой 1" xmlns="http://www.w3.org/2000/svg" xmlns:xlink="http://www.w3.org/1999/xlink" viewBox="0 0 90.88 91.29"><defs><style>.cls-1{fill:none;}.cls-2{clip-path:url(#clip-path);}.cls-3{fill:#fff;}.cls-4{clip-path:url(#clip-path-2);}.cls-5{fill:url(#Безымянный_градиент);}.cls-6{clip-path:url(#clip-path-3);}.cls-7{fill:url(#Безымянный_градиент_2);}</style><clipPath id="clip-path" transform="translate(0 0)"><rect class="cls-1" width="90.88" height="91.29"/></clipPath><clipPath id="clip-path-2" transform="translate(0 0)"><path class="cls-1" d="M45.62,89h0M1.94,45.25h0A43.57,43.57,0,0,0,7.77,67.08L1.57,89.71l23.16-6.07A43.67,43.67,0,0,0,45.6,89h0A43.68,43.68,0,1,0,1.94,45.25"/></clipPath><linearGradient id="Безымянный_градиент" y1="91.29" x2="1" y2="91.29" gradientTransform="translate(-7999.37 89.71) rotate(-90) scale(88.12)" gradientUnits="userSpaceOnUse"><stop offset="0" stop-color="#66ad45"/><stop offset="1" stop-color="#8dd471"/></linearGradient><clipPath id="clip-path-3" transform="translate(0 0)"><path class="cls-1" d="M45.63,90.51Zm-31-23.84-.9-1.42A37.61,37.61,0,1,1,45.63,82.87h0a37.56,37.56,0,0,1-19.14-5.24l-1.37-.81L10.86,80.54ZM.38,45.24h0a45.13,45.13,0,0,0,6,22.61L0,91.29,24,85a45.23,45.23,0,0,0,21.62,5.51h0A45.25,45.25,0,1,0,.38,45.24"/></clipPath><linearGradient id="Безымянный_градиент_2" y1="91.29" x2="1" y2="91.29" gradientTransform="translate(-8287.77 91.29) rotate(-90) scale(91.28)" gradientUnits="userSpaceOnUse"><stop offset="0" stop-color="#f8f8f8"/><stop offset="1" stop-color="#fff"/></linearGradient></defs><title>whatsapp</title><g class="cls-2"><path class="cls-3" d="M25.1,76.8l1.37.82a37.55,37.55,0,0,0,19.14,5.24h0A37.6,37.6,0,1,0,13.77,65.24l.9,1.42-3.8,13.87ZM0,91.28,6.42,67.84A45.25,45.25,0,1,1,45.63,90.5h0A45.22,45.22,0,0,1,24,85Z" transform="translate(0 0)"/></g><g class="cls-4"><rect class="cls-5" x="1.57" y="1.59" width="87.73" height="88.12"/></g><g class="cls-6"><rect class="cls-7" y="0.01" width="90.88" height="91.28"/></g><g class="cls-2"><path class="cls-3" d="M34.32,26.33c-.85-1.88-1.74-1.92-2.54-2s-1.41,0-2.17,0a4.16,4.16,0,0,0-3,1.41,12.67,12.67,0,0,0-4,9.43c0,5.56,4.05,10.94,4.62,11.69s7.82,12.53,19.31,17.06c9.55,3.77,11.49,3,13.57,2.83S66.82,64,67.76,61.4s.94-4.9.66-5.37-1-.75-2.17-1.32-6.69-3.3-7.73-3.68-1.79-.56-2.54.57S53.07,55.27,52.41,56s-1.32.85-2.45.28a30.91,30.91,0,0,1-9.09-5.61,34.06,34.06,0,0,1-6.29-7.83c-.66-1.13-.07-1.74.5-2.31s1.13-1.32,1.7-2A7.76,7.76,0,0,0,37.9,36.7a2.08,2.08,0,0,0-.1-2c-.28-.57-2.48-6.16-3.49-8.39" transform="translate(0 0)"/></g></svg>