<?xml version="1.0"?>
<svg xmlns="http://www.w3.org/2000/svg" xmlns:xlink="http://www.w3.org/1999/xlink" xmlns:svgjs="http://svgjs.com/svgjs" version="1.1" width="512" height="512" x="0" y="0" viewBox="0 0 512 512" style="enable-background:new 0 0 512 512" xml:space="preserve" class=""><g><g xmlns="http://www.w3.org/2000/svg" id="Outline"><path d="m104 16h16v16h-16z" fill="#109647" data-original="#000000" style="" class=""/><path d="m64 56h16v16h-16z" fill="#109647" data-original="#000000" style="" class=""/><path d="m144 56h16v16h-16z" fill="#109647" data-original="#000000" style="" class=""/><path d="m75.716 84.284h16v16h-16z" transform="matrix(.707 -.707 .707 .707 -40.735 86.225)" fill="#109647" data-original="#000000" style="" class=""/><path d="m132.284 27.716h16v16h-16z" transform="matrix(.707 -.707 .707 .707 15.833 109.657)" fill="#109647" data-original="#000000" style="" class=""/><path d="m132.284 84.284h16v16h-16z" transform="matrix(.707 -.707 .707 .707 -24.166 126.225)" fill="#109647" data-original="#000000" style="" class=""/><path d="m75.716 27.716h16v16h-16z" transform="matrix(.707 -.707 .707 .707 -.735 69.657)" fill="#109647" data-original="#000000" style="" class=""/><path d="m232 96a8 8 0 0 0 -8 8v34.924a175.081 175.081 0 0 0 -68.846 28.917l-21.5-21.5a8 8 0 0 0 -11.314 0l-32 32a8 8 0 0 0 0 11.314l21.5 21.5a175.013 175.013 0 0 0 -31.84 100.845c0 97.047 78.953 176 176 176s176-78.953 176-176a175.013 175.013 0 0 0 -31.841-100.846l21.5-21.5a8 8 0 0 0 0-11.314l-32-32a8 8 0 0 0 -11.314 0l-21.5 21.5a175.081 175.081 0 0 0 -68.845-28.916v-34.924a8 8 0 0 0 -8-8h-16v-4a44 44 0 1 0 -88 0 28 28 0 0 1 -56 0v-36h-16v36a44 44 0 1 0 88 0 28 28 0 1 1 56 0v4zm-124.687 88 20.687-20.687 14.386 14.387a177.559 177.559 0 0 0 -20.686 20.686zm148.687 288c-88.224 0-160-71.776-160-160s71.776-160 160-160 160 71.776 160 160-71.776 160-160 160zm128-308.687 20.687 20.687-14.387 14.386a177.559 177.559 0 0 0 -20.686-20.686zm-112-26.578c-5.272-.477-10.606-.735-16-.735s-10.728.258-16 .735v-24.735h32z" fill="#109647" data-original="#000000" style="" class=""/><path d="m256 168c-79.4 0-144 64.6-144 144s64.6 144 144 144 144-64.6 144-144-64.6-144-144-144zm0 272a128 128 0 1 1 128-128 128.144 128.144 0 0 1 -128 128z" fill="#109647" data-original="#000000" style="" class=""/><path d="m256 288a24.026 24.026 0 1 0 23.592 19.617l77.408-44.689-8-13.856-77.414 44.695a23.892 23.892 0 0 0 -15.586-5.767zm0 32a8 8 0 1 1 8-8 8.009 8.009 0 0 1 -8 8z" fill="#109647" data-original="#000000" style="" class=""/><path d="m248 200h16v24h-16z" fill="#109647" data-original="#000000" style="" class=""/><path d="m248 400h16v24h-16z" fill="#109647" data-original="#000000" style="" class=""/><path d="m198 213.398h16v24h-16z" transform="matrix(.866 -.5 .5 .866 -85.101 133.2)" fill="#109647" data-original="#000000" style="" class=""/><path d="m298 386.603h16v24h-16z" transform="matrix(.866 -.5 .5 .866 -158.307 206.407)" fill="#109647" data-original="#000000" style="" class=""/><path d="m161.397 250h16v24h-16z" transform="matrix(.5 -.866 .866 .5 -142.2 277.7)" fill="#109647" data-original="#000000" style="" class=""/><path d="m334.603 350h16v24h-16z" transform="matrix(.5 -.866 .866 .5 -142.201 477.698)" fill="#109647" data-original="#000000" style="" class=""/><path d="m144 304h24v16h-24z" fill="#109647" data-original="#000000" style="" class=""/><path d="m344 304h24v16h-24z" fill="#109647" data-original="#000000" style="" class=""/><path d="m157.398 354h24v16h-24z" transform="matrix(.866 -.5 .5 .866 -158.305 133.197)" fill="#109647" data-original="#000000" style="" class=""/><path d="m194 390.603h24v16h-24z" transform="matrix(.5 -.866 .866 .5 -242.2 377.703)" fill="#109647" data-original="#000000" style="" class=""/><path d="m294 217.397h24v16h-24z" transform="matrix(.5 -.866 .866 .5 -42.2 377.703)" fill="#109647" data-original="#000000" style="" class=""/></g></g></svg>
